<?xml version="1.0" standalone="no"?>
<!DOCTYPE svg PUBLIC "-//W3C//DTD SVG 20010904//EN"
 "http://www.w3.org/TR/2001/REC-SVG-20010904/DTD/svg10.dtd">
<svg version="1.0" xmlns="http://www.w3.org/2000/svg"
 width="1280.000000pt" height="1280.000000pt" viewBox="0 0 1280.000000 1280.000000"
 preserveAspectRatio="xMidYMid meet">
<metadata>
Created by potrace 1.15, written by Peter Selinger 2001-2017
</metadata>
<g transform="translate(0.000000,1280.000000) scale(0.100000,-0.100000)"
fill="#000000" stroke="none">
<path d="M6090 12794 c-549 -36 -932 -98 -1395 -224 -1113 -304 -2161 -934
-2947 -1773 -1168 -1247 -1784 -2848 -1745 -4532 23 -983 247 -1879 687 -2750
328 -650 715 -1175 1251 -1700 1226 -1200 2879 -1852 4594 -1812 683 16 1303
126 1936 343 1763 604 3186 1960 3878 3697 456 1144 570 2434 321 3645 -198
963 -616 1868 -1220 2642 -290 372 -674 761 -1040 1056 -995 800 -2162 1269
-3460 1390 -145 14 -738 26 -860 18z m1181 -3996 c-6 -601 -16 -1298 -21
-1548 -16 -732 -30 -1364 -40 -1825 -5 -236 -14 -902 -20 -1480 -6 -577 -12
-1076 -13 -1108 l-2 -58 -1750 1784 c-962 981 -1750 1788 -1752 1793 -2 5 773
770 1722 1699 949 930 1760 1724 1803 1766 42 41 79 74 81 73 2 -2 -2 -495 -8
-1096z"/>
</g>
</svg>
